<svg width="732" height="142" viewBox="0 0 732 142" fill="none" xmlns="http://www.w3.org/2000/svg">
<g filter="url(#filter0_dd_41_3754)">
<path d="M16.32 10.4H72.512L85.312 23.2V48.288L80.192 53.536L89.28 62.752V86.176L75.456 100H16.32V10.4ZM63.552 47.904L68.16 43.296V29.472L63.68 24.992H33.344V47.904H63.552ZM66.624 85.408L72.128 79.904V67.36L66.624 61.856H33.344V85.408H66.624ZM102.07 8.60799H118.966V100H102.07V8.60799ZM134.29 22.944V14.752L140.178 8.864H149.138L155.026 14.752V22.944L149.138 28.832H140.178L134.29 22.944ZM136.21 36.256H153.106V100H136.21V36.256ZM166.605 87.456V79.648H183.245V83.232L186.061 86.176H206.797L209.613 83.232V77.728L206.669 74.656H179.149L167.117 62.496V48.544L179.277 36.256H212.557L224.973 48.8V56.608H208.333V53.024L205.517 50.08H186.573L183.757 53.024V58.016L186.701 61.088H214.221L226.253 73.248V87.712L214.093 100H179.021L166.605 87.456ZM235.23 87.456V79.648H251.87V83.232L254.686 86.176H275.422L278.238 83.232V77.728L275.294 74.656H247.774L235.742 62.496V48.544L247.902 36.256H281.182L293.598 48.8V56.608H276.958V53.024L274.142 50.08H255.198L252.382 53.024V58.016L255.326 61.088H282.846L294.878 73.248V87.712L282.718 100H247.646L235.23 87.456Z" fill="black"/>
<path d="M419.498 107.168L408.746 117.92L390.698 100H356.01L341.29 85.28V25.12L356.01 10.4H402.09L416.81 25.12V85.28L407.338 94.752L419.498 107.168ZM392.874 85.152L399.402 78.624V31.776L392.874 25.248H365.226L358.698 31.776V78.624L365.226 85.152H392.874ZM430.275 86.688V49.568L443.459 36.256H480.067L493.251 49.568V86.688L480.067 100H443.459L430.275 86.688ZM471.875 85.92L476.355 81.44V54.816L471.875 50.336H451.651L447.171 54.816V81.44L451.651 85.92H471.875ZM506.025 86.688V49.568L519.209 36.256H544.553L552.105 42.784V8.60799H569.001V100H553.129V90.144L543.273 100H519.209L506.025 86.688ZM541.737 85.664L552.105 75.04V58.4L543.401 50.592H527.785L522.921 55.584V80.672L527.785 85.664H541.737ZM583.025 86.944V49.568L596.209 36.256H632.177L645.489 49.568V73.76H599.921V81.952L604.017 86.176H624.881L628.721 82.208V78.88H645.361V87.2L632.689 100H595.953L583.025 86.944ZM628.593 61.984V54.56L624.241 50.08H604.273L599.921 54.56V61.984H628.593ZM655.73 87.456V79.648H672.37V83.232L675.186 86.176H695.922L698.738 83.232V77.728L695.794 74.656H668.274L656.242 62.496V48.544L668.402 36.256H701.682L714.098 48.8V56.608H697.458V53.024L694.642 50.08H675.698L672.882 53.024V58.016L675.826 61.088H703.346L715.378 73.248V87.712L703.218 100H668.146L655.73 87.456Z" fill="#E9B949"/>
</g>
<defs>
<filter id="filter0_dd_41_3754" x="0.320007" y="0.608398" width="731.058" height="141.312" filterUnits="userSpaceOnUse" color-interpolation-filters="sRGB">
<feFlood flood-opacity="0" result="BackgroundImageFix"/>
<feColorMatrix in="SourceAlpha" type="matrix" values="0 0 0 0 0 0 0 0 0 0 0 0 0 0 0 0 0 0 127 0" result="hardAlpha"/>
<feOffset dy="8"/>
<feGaussianBlur stdDeviation="8"/>
<feComposite in2="hardAlpha" operator="out"/>
<feColorMatrix type="matrix" values="0 0 0 0 0 0 0 0 0 0 0 0 0 0 0 0 0 0 0.25 0"/>
<feBlend mode="normal" in2="BackgroundImageFix" result="effect1_dropShadow_41_3754"/>
<feColorMatrix in="SourceAlpha" type="matrix" values="0 0 0 0 0 0 0 0 0 0 0 0 0 0 0 0 0 0 127 0" result="hardAlpha"/>
<feOffset dy="8"/>
<feGaussianBlur stdDeviation="4"/>
<feComposite in2="hardAlpha" operator="out"/>
<feColorMatrix type="matrix" values="0 0 0 0 0 0 0 0 0 0 0 0 0 0 0 0 0 0 0.25 0"/>
<feBlend mode="normal" in2="effect1_dropShadow_41_3754" result="effect2_dropShadow_41_3754"/>
<feBlend mode="normal" in="SourceGraphic" in2="effect2_dropShadow_41_3754" result="shape"/>
</filter>
</defs>
</svg>
