<svg width="17" height="16" viewBox="0 0 17 16" fill="none" xmlns="http://www.w3.org/2000/svg">
<g clip-path="url(#clip0_1_3087)">
<path d="M4.5 6.66665V5.33331C4.5 3.12665 5.16667 1.33331 8.5 1.33331C11.8333 1.33331 12.5 3.12665 12.5 5.33331V6.66665" stroke="#8F95B2" stroke-linecap="round" stroke-linejoin="round"/>
<path d="M10.1666 10.6667C10.1666 10.9963 10.0688 11.3185 9.8857 11.5926C9.70257 11.8667 9.44227 12.0803 9.13773 12.2065C8.83318 12.3326 8.49807 12.3656 8.17477 12.3013C7.85147 12.237 7.5545 12.0783 7.32141 11.8452C7.08832 11.6121 6.92959 11.3151 6.86528 10.9918C6.80097 10.6685 6.83397 10.3334 6.96012 10.0289C7.08627 9.72432 7.29989 9.46402 7.57397 9.28088C7.84805 9.09775 8.17028 9 8.49992 9C8.94195 9 9.36587 9.17559 9.67843 9.48816C9.99099 9.80072 10.1666 10.2246 10.1666 10.6667Z" stroke="#8F95B2" stroke-linecap="round" stroke-linejoin="round"/>
<path d="M11.8333 14.6667H5.16659C2.49992 14.6667 1.83325 14 1.83325 11.3334V10C1.83325 7.33335 2.49992 6.66669 5.16659 6.66669H11.8333C14.4999 6.66669 15.1666 7.33335 15.1666 10V11.3334C15.1666 14 14.4999 14.6667 11.8333 14.6667Z" stroke="#8F95B2" stroke-linecap="round" stroke-linejoin="round"/>
</g>
<defs>
<clipPath id="clip0_1_3087">
<rect width="16" height="16" fill="white" transform="translate(0.5)"/>
</clipPath>
</defs>
</svg>
